<svg xmlns="http://www.w3.org/2000/svg" xmlns:xlink="http://www.w3.org/1999/xlink" width="600" zoomAndPan="magnify" viewBox="0 0 450 599.999999" height="800" preserveAspectRatio="xMidYMid meet" version="1.0"><defs><g/><clipPath id="id1"><path d="M 142.519531 147.128906 L 307.519531 147.128906 L 307.519531 312.128906 L 142.519531 312.128906 Z M 142.519531 147.128906 " clip-rule="nonzero"/></clipPath></defs><rect x="-45" width="540" fill="#ffffff" y="-60" height="719.999999" fill-opacity="1"/><rect x="-45" width="540" fill="#0b5884" y="-60" height="719.999999" fill-opacity="1"/><rect x="-45" width="540" fill="#ffffff" y="-60" height="719.999999" fill-opacity="1"/><rect x="-45" width="540" fill="#0b5884" y="-60" height="719.999999" fill-opacity="1"/><g clip-path="url(#id1)"><path fill="#fcffff" d="M 304.691406 306.988281 L 302.121094 306.988281 L 302.121094 175.785156 C 302.121094 172.960938 300.132812 169.515625 297.683594 168.09375 C 297.683594 168.09375 279.1875 158.828125 279.152344 158.808594 C 276.542969 157.5 273.128906 157.632812 270.878906 159.628906 L 262.265625 167.269531 C 260.144531 169.148438 258.429688 172.960938 258.429688 175.785156 L 258.429688 232.636719 C 258.429688 232.636719 262.320312 230.867188 263.570312 230.722656 L 263.570312 175.785156 C 263.570312 174.425781 264.652344 172.023438 265.675781 171.113281 L 272.566406 165.003906 L 272.566406 231.695312 L 277.707031 234.117188 L 277.707031 225.496094 L 296.980469 235.640625 L 296.980469 245.25 L 290.632812 241.910156 C 291.375 243.171875 291.839844 248.351562 291.839844 248.351562 L 296.980469 251.058594 L 296.980469 260.667969 L 291.839844 257.964844 L 291.839844 263.769531 L 296.980469 266.476562 L 296.980469 276.089844 L 291.839844 273.382812 L 291.839844 279.191406 L 296.980469 281.894531 L 296.980469 291.507812 L 291.839844 288.800781 L 291.839844 294.609375 L 296.980469 297.3125 L 296.980469 306.988281 L 286.699219 306.988281 L 286.699219 250.285156 C 286.699219 247.445312 284.613281 244.179688 282.035156 242.984375 L 269.519531 237.195312 C 268.316406 236.636719 266.773438 236.363281 265.21875 236.363281 C 263.441406 236.363281 261.644531 236.71875 260.304688 237.421875 L 250.132812 242.757812 C 247.617188 244.078125 245.578125 247.445312 245.578125 250.285156 L 245.578125 306.988281 L 240.4375 306.988281 L 240.4375 165.605469 C 240.4375 162.765625 238.453125 159.300781 236.003906 157.867188 C 236.003906 157.867188 220.039062 148.535156 220.039062 148.535156 C 217.542969 147.074219 213.925781 147.449219 211.765625 149.359375 L 203.152344 157.042969 C 201.035156 158.933594 199.316406 162.765625 199.316406 165.605469 L 199.316406 306.988281 L 194.179688 306.988281 L 194.179688 189.820312 C 194.179688 186.964844 192.128906 183.59375 189.601562 182.292969 C 189.601562 182.292969 178.671875 176.660156 178.671875 176.660156 C 176.644531 175.617188 173.9375 175.648438 171.890625 176.648438 C 171.335938 176.917969 170.679688 177.289062 170.242188 177.730469 L 151.769531 194.152344 C 149.640625 196.046875 147.917969 199.894531 147.917969 202.753906 L 147.917969 306.988281 L 145.347656 306.988281 C 143.925781 306.988281 142.777344 308.140625 142.777344 309.558594 C 142.777344 310.976562 143.925781 312.128906 145.347656 312.128906 L 304.691406 312.128906 C 306.109375 312.128906 307.261719 310.976562 307.261719 309.558594 C 307.261719 308.140625 306.109375 306.988281 304.691406 306.988281 Z M 172.332031 306.988281 L 163.808594 306.988281 L 172.332031 299.777344 Z M 172.332031 293.046875 L 155.894531 306.953125 L 155.921875 306.988281 L 153.054688 306.988281 L 153.054688 300.015625 L 172.332031 283.632812 Z M 172.332031 276.890625 L 153.054688 293.273438 L 153.054688 283.3125 L 172.332031 266.929688 Z M 172.332031 260.1875 L 153.054688 276.570312 L 153.054688 266.609375 L 172.332031 250.226562 Z M 172.332031 243.484375 L 153.054688 259.867188 L 153.054688 249.90625 L 172.332031 233.523438 Z M 172.332031 226.78125 L 153.054688 243.164062 L 153.054688 233.203125 L 172.332031 216.820312 Z M 172.332031 210.078125 L 153.054688 226.457031 L 153.054688 216.496094 L 172.332031 200.117188 Z M 172.332031 193.371094 L 153.054688 209.753906 L 153.054688 202.753906 C 153.054688 201.359375 154.152344 198.914062 155.183594 197.992188 L 172.332031 182.746094 Z M 235.300781 306.988281 L 219.878906 306.988281 L 219.878906 294.039062 L 235.300781 302.710938 Z M 235.300781 296.8125 L 219.878906 288.140625 L 219.878906 278.617188 L 235.300781 287.289062 Z M 235.300781 281.394531 L 219.878906 272.71875 L 219.878906 263.199219 L 235.300781 271.871094 Z M 235.300781 265.976562 L 219.878906 257.300781 L 219.878906 247.78125 L 235.300781 256.453125 Z M 235.300781 250.554688 L 219.878906 241.882812 L 219.878906 232.363281 L 235.300781 241.035156 Z M 235.300781 235.136719 L 219.878906 226.464844 L 219.878906 216.941406 L 235.300781 225.617188 Z M 235.300781 219.71875 L 219.878906 211.046875 L 219.878906 201.523438 L 235.300781 210.195312 Z M 235.300781 204.296875 L 219.878906 195.625 L 219.878906 186.105469 L 235.300781 194.777344 Z M 235.300781 188.878906 L 219.878906 180.207031 L 219.878906 170.683594 L 235.300781 179.359375 Z M 235.300781 173.460938 L 219.878906 164.789062 L 219.878906 154.394531 L 233.40625 162.304688 C 234.273438 162.8125 235.300781 164.601562 235.300781 165.605469 Z M 262.285156 242.1875 L 262.285156 306.988281 L 250.71875 306.988281 L 250.71875 250.285156 C 250.71875 249.351562 251.695312 247.742188 252.519531 247.308594 M 281.5625 306.988281 L 267.425781 306.988281 L 267.425781 241.886719 L 279.875 247.648438 C 280.632812 248 281.5625 249.453125 281.5625 250.285156 Z M 296.980469 229.832031 L 277.707031 219.6875 L 277.707031 210.078125 L 296.980469 220.21875 Z M 296.980469 214.414062 L 277.707031 204.265625 L 277.707031 194.65625 L 296.980469 204.800781 Z M 296.980469 198.992188 L 277.707031 188.847656 L 277.707031 179.238281 L 296.980469 189.382812 Z M 296.980469 183.574219 L 277.707031 173.429688 L 277.707031 163.832031 L 295.1875 172.589844 C 296.03125 173.15625 296.980469 174.832031 296.980469 175.785156 Z M 296.980469 183.574219 " fill-opacity="1" fill-rule="nonzero"/></g><g fill="#fcffff" fill-opacity="1"><g transform="translate(86.767966, 364.461537)"><g><path d="M 41.203125 -23.75 L 46.015625 -23.75 L 46.015625 -5.640625 C 43.796875 -3.691406 41.171875 -2.195312 38.140625 -1.15625 C 35.109375 -0.113281 31.921875 0.40625 28.578125 0.40625 C 23.828125 0.40625 19.550781 -0.632812 15.75 -2.71875 C 11.945312 -4.800781 8.957031 -7.6875 6.78125 -11.375 C 4.613281 -15.0625 3.53125 -19.1875 3.53125 -23.75 C 3.53125 -28.320312 4.613281 -32.453125 6.78125 -36.140625 C 8.957031 -39.828125 11.945312 -42.710938 15.75 -44.796875 C 19.550781 -46.878906 23.847656 -47.921875 28.640625 -47.921875 C 32.265625 -47.921875 35.59375 -47.34375 38.625 -46.1875 C 41.65625 -45.03125 44.210938 -43.320312 46.296875 -41.0625 L 43.171875 -37.875 C 39.410156 -41.582031 34.632812 -43.4375 28.84375 -43.4375 C 25 -43.4375 21.523438 -42.585938 18.421875 -40.890625 C 15.328125 -39.191406 12.894531 -36.835938 11.125 -33.828125 C 9.363281 -30.828125 8.484375 -27.46875 8.484375 -23.75 C 8.484375 -20.039062 9.363281 -16.691406 11.125 -13.703125 C 12.894531 -10.722656 15.316406 -8.375 18.390625 -6.65625 C 21.472656 -4.9375 24.9375 -4.078125 28.78125 -4.078125 C 33.664062 -4.078125 37.804688 -5.296875 41.203125 -7.734375 Z M 41.203125 -23.75 "/></g></g></g><g fill="#fcffff" fill-opacity="1"><g transform="translate(139.235406, 364.461537)"><g><path d="M 41.328125 -4.34375 L 41.328125 0 L 7.734375 0 L 7.734375 -47.515625 L 40.3125 -47.515625 L 40.3125 -43.171875 L 12.765625 -43.171875 L 12.765625 -26.265625 L 37.328125 -26.265625 L 37.328125 -21.984375 L 12.765625 -21.984375 L 12.765625 -4.34375 Z M 41.328125 -4.34375 "/></g></g></g><g fill="#fcffff" fill-opacity="1"><g transform="translate(184.643832, 364.461537)"><g><path d="M 16.96875 -43.171875 L 0.265625 -43.171875 L 0.265625 -47.515625 L 38.6875 -47.515625 L 38.6875 -43.171875 L 21.984375 -43.171875 L 21.984375 0 L 16.96875 0 Z M 16.96875 -43.171875 "/></g></g></g><g fill="#fcffff" fill-opacity="1"><g transform="translate(223.604131, 364.461537)"><g><path d="M 41.203125 -23.75 L 46.015625 -23.75 L 46.015625 -5.640625 C 43.796875 -3.691406 41.171875 -2.195312 38.140625 -1.15625 C 35.109375 -0.113281 31.921875 0.40625 28.578125 0.40625 C 23.828125 0.40625 19.550781 -0.632812 15.75 -2.71875 C 11.945312 -4.800781 8.957031 -7.6875 6.78125 -11.375 C 4.613281 -15.0625 3.53125 -19.1875 3.53125 -23.75 C 3.53125 -28.320312 4.613281 -32.453125 6.78125 -36.140625 C 8.957031 -39.828125 11.945312 -42.710938 15.75 -44.796875 C 19.550781 -46.878906 23.847656 -47.921875 28.640625 -47.921875 C 32.265625 -47.921875 35.59375 -47.34375 38.625 -46.1875 C 41.65625 -45.03125 44.210938 -43.320312 46.296875 -41.0625 L 43.171875 -37.875 C 39.410156 -41.582031 34.632812 -43.4375 28.84375 -43.4375 C 25 -43.4375 21.523438 -42.585938 18.421875 -40.890625 C 15.328125 -39.191406 12.894531 -36.835938 11.125 -33.828125 C 9.363281 -30.828125 8.484375 -27.46875 8.484375 -23.75 C 8.484375 -20.039062 9.363281 -16.691406 11.125 -13.703125 C 12.894531 -10.722656 15.316406 -8.375 18.390625 -6.65625 C 21.472656 -4.9375 24.9375 -4.078125 28.78125 -4.078125 C 33.664062 -4.078125 37.804688 -5.296875 41.203125 -7.734375 Z M 41.203125 -23.75 "/></g></g></g><g fill="#fcffff" fill-opacity="1"><g transform="translate(276.07157, 364.461537)"><g><path d="M 41.328125 -4.34375 L 41.328125 0 L 7.734375 0 L 7.734375 -47.515625 L 40.3125 -47.515625 L 40.3125 -43.171875 L 12.765625 -43.171875 L 12.765625 -26.265625 L 37.328125 -26.265625 L 37.328125 -21.984375 L 12.765625 -21.984375 L 12.765625 -4.34375 Z M 41.328125 -4.34375 "/></g></g></g><g fill="#fcffff" fill-opacity="1"><g transform="translate(321.480008, 364.461537)"><g><path d="M 20.84375 0.40625 C 17.3125 0.40625 13.925781 -0.15625 10.6875 -1.28125 C 7.457031 -2.414062 4.957031 -3.910156 3.1875 -5.765625 L 5.15625 -9.640625 C 6.875 -7.921875 9.160156 -6.53125 12.015625 -5.46875 C 14.867188 -4.40625 17.8125 -3.875 20.84375 -3.875 C 25.09375 -3.875 28.28125 -4.648438 30.40625 -6.203125 C 32.53125 -7.765625 33.59375 -9.789062 33.59375 -12.28125 C 33.59375 -14.1875 33.015625 -15.703125 31.859375 -16.828125 C 30.710938 -17.960938 29.300781 -18.832031 27.625 -19.4375 C 25.945312 -20.050781 23.617188 -20.722656 20.640625 -21.453125 C 17.054688 -22.359375 14.203125 -23.226562 12.078125 -24.0625 C 9.953125 -24.894531 8.128906 -26.171875 6.609375 -27.890625 C 5.097656 -29.609375 4.34375 -31.941406 4.34375 -34.890625 C 4.34375 -37.285156 4.972656 -39.46875 6.234375 -41.4375 C 7.503906 -43.40625 9.453125 -44.976562 12.078125 -46.15625 C 14.703125 -47.332031 17.960938 -47.921875 21.859375 -47.921875 C 24.566406 -47.921875 27.222656 -47.546875 29.828125 -46.796875 C 32.429688 -46.054688 34.679688 -45.03125 36.578125 -43.71875 L 34.890625 -39.703125 C 32.898438 -41.015625 30.769531 -42 28.5 -42.65625 C 26.238281 -43.3125 24.023438 -43.640625 21.859375 -43.640625 C 17.691406 -43.640625 14.554688 -42.835938 12.453125 -41.234375 C 10.347656 -39.628906 9.296875 -37.5625 9.296875 -35.03125 C 9.296875 -33.125 9.875 -31.59375 11.03125 -30.4375 C 12.1875 -29.289062 13.632812 -28.410156 15.375 -27.796875 C 17.113281 -27.179688 19.457031 -26.515625 22.40625 -25.796875 C 25.882812 -24.929688 28.695312 -24.078125 30.84375 -23.234375 C 33 -22.398438 34.820312 -21.132812 36.3125 -19.4375 C 37.800781 -17.75 38.546875 -15.457031 38.546875 -12.5625 C 38.546875 -10.15625 37.898438 -7.96875 36.609375 -6 C 35.328125 -4.03125 33.347656 -2.46875 30.671875 -1.3125 C 28.003906 -0.164062 24.726562 0.40625 20.84375 0.40625 Z M 20.84375 0.40625 "/></g></g></g><g fill="#fcffff" fill-opacity="1"><g transform="translate(92.807001, 388.834123)"><g><path d="M 6.703125 0 L 4.953125 0 L 4.953125 -13.5 L 0.1875 -13.5 L 0.1875 -15.0625 L 11.46875 -15.0625 L 11.46875 -13.5 L 6.703125 -13.5 Z M 6.703125 0 "/></g></g></g><g fill="#fcffff" fill-opacity="1"><g transform="translate(104.474341, 388.834123)"><g><path d="M 10.46875 0 L 2.0625 0 L 2.0625 -15.0625 L 10.46875 -15.0625 L 10.46875 -13.5 L 3.828125 -13.5 L 3.828125 -8.65625 L 10.0625 -8.65625 L 10.0625 -7.109375 L 3.828125 -7.109375 L 3.828125 -1.5625 L 10.46875 -1.5625 Z M 10.46875 0 "/></g></g></g><g fill="#fcffff" fill-opacity="1"><g transform="translate(116.203468, 388.834123)"><g><path d="M 8.515625 -13.703125 C 6.859375 -13.703125 5.550781 -13.148438 4.59375 -12.046875 C 3.632812 -10.953125 3.15625 -9.445312 3.15625 -7.53125 C 3.15625 -5.5625 3.617188 -4.035156 4.546875 -2.953125 C 5.472656 -1.878906 6.789062 -1.34375 8.5 -1.34375 C 9.550781 -1.34375 10.75 -1.535156 12.09375 -1.921875 L 12.09375 -0.375 C 11.050781 0.0078125 9.765625 0.203125 8.234375 0.203125 C 6.015625 0.203125 4.300781 -0.46875 3.09375 -1.8125 C 1.882812 -3.15625 1.28125 -5.066406 1.28125 -7.546875 C 1.28125 -9.097656 1.570312 -10.457031 2.15625 -11.625 C 2.738281 -12.789062 3.578125 -13.691406 4.671875 -14.328125 C 5.765625 -14.960938 7.050781 -15.28125 8.53125 -15.28125 C 10.113281 -15.28125 11.492188 -14.988281 12.671875 -14.40625 L 11.9375 -12.90625 C 10.800781 -13.4375 9.660156 -13.703125 8.515625 -13.703125 Z M 8.515625 -13.703125 "/></g></g></g><g fill="#fcffff" fill-opacity="1"><g transform="translate(129.508148, 388.834123)"><g><path d="M 13.828125 0 L 11.828125 0 L 3.609375 -12.640625 L 3.515625 -12.640625 C 3.628906 -11.148438 3.6875 -9.789062 3.6875 -8.5625 L 3.6875 0 L 2.0625 0 L 2.0625 -15.0625 L 4.046875 -15.0625 L 12.25 -2.46875 L 12.34375 -2.46875 C 12.320312 -2.65625 12.285156 -3.25 12.234375 -4.25 C 12.191406 -5.257812 12.175781 -5.984375 12.1875 -6.421875 L 12.1875 -15.0625 L 13.828125 -15.0625 Z M 13.828125 0 "/></g></g></g><g fill="#fcffff" fill-opacity="1"><g transform="translate(145.407859, 388.834123)"><g><path d="M 15.140625 -7.546875 C 15.140625 -5.140625 14.53125 -3.242188 13.3125 -1.859375 C 12.09375 -0.484375 10.398438 0.203125 8.234375 0.203125 C 6.015625 0.203125 4.300781 -0.472656 3.09375 -1.828125 C 1.882812 -3.179688 1.28125 -5.09375 1.28125 -7.5625 C 1.28125 -10.019531 1.882812 -11.921875 3.09375 -13.265625 C 4.300781 -14.617188 6.019531 -15.296875 8.25 -15.296875 C 10.414062 -15.296875 12.101562 -14.609375 13.3125 -13.234375 C 14.53125 -11.859375 15.140625 -9.960938 15.140625 -7.546875 Z M 3.140625 -7.546875 C 3.140625 -5.503906 3.570312 -3.957031 4.4375 -2.90625 C 5.3125 -1.851562 6.578125 -1.328125 8.234375 -1.328125 C 9.898438 -1.328125 11.15625 -1.851562 12 -2.90625 C 12.851562 -3.957031 13.28125 -5.503906 13.28125 -7.546875 C 13.28125 -9.578125 12.859375 -11.113281 12.015625 -12.15625 C 11.171875 -13.207031 9.914062 -13.734375 8.25 -13.734375 C 6.582031 -13.734375 5.3125 -13.203125 4.4375 -12.140625 C 3.570312 -11.085938 3.140625 -9.554688 3.140625 -7.546875 Z M 3.140625 -7.546875 "/></g></g></g><g fill="#fcffff" fill-opacity="1"><g transform="translate(161.832755, 388.834123)"><g><path d="M 2.0625 0 L 2.0625 -15.0625 L 3.828125 -15.0625 L 3.828125 -1.59375 L 10.46875 -1.59375 L 10.46875 0 Z M 2.0625 0 "/></g></g></g><g fill="#fcffff" fill-opacity="1"><g transform="translate(172.779253, 388.834123)"><g><path d="M 15.140625 -7.546875 C 15.140625 -5.140625 14.53125 -3.242188 13.3125 -1.859375 C 12.09375 -0.484375 10.398438 0.203125 8.234375 0.203125 C 6.015625 0.203125 4.300781 -0.472656 3.09375 -1.828125 C 1.882812 -3.179688 1.28125 -5.09375 1.28125 -7.5625 C 1.28125 -10.019531 1.882812 -11.921875 3.09375 -13.265625 C 4.300781 -14.617188 6.019531 -15.296875 8.25 -15.296875 C 10.414062 -15.296875 12.101562 -14.609375 13.3125 -13.234375 C 14.53125 -11.859375 15.140625 -9.960938 15.140625 -7.546875 Z M 3.140625 -7.546875 C 3.140625 -5.503906 3.570312 -3.957031 4.4375 -2.90625 C 5.3125 -1.851562 6.578125 -1.328125 8.234375 -1.328125 C 9.898438 -1.328125 11.15625 -1.851562 12 -2.90625 C 12.851562 -3.957031 13.28125 -5.503906 13.28125 -7.546875 C 13.28125 -9.578125 12.859375 -11.113281 12.015625 -12.15625 C 11.171875 -13.207031 9.914062 -13.734375 8.25 -13.734375 C 6.582031 -13.734375 5.3125 -13.203125 4.4375 -12.140625 C 3.570312 -11.085938 3.140625 -9.554688 3.140625 -7.546875 Z M 3.140625 -7.546875 "/></g></g></g><g fill="#fcffff" fill-opacity="1"><g transform="translate(189.204148, 388.834123)"><g><path d="M 8.6875 -7.890625 L 13.8125 -7.890625 L 13.8125 -0.5625 C 13.007812 -0.3125 12.195312 -0.125 11.375 0 C 10.550781 0.132812 9.597656 0.203125 8.515625 0.203125 C 6.234375 0.203125 4.457031 -0.472656 3.1875 -1.828125 C 1.914062 -3.179688 1.28125 -5.082031 1.28125 -7.53125 C 1.28125 -9.09375 1.59375 -10.460938 2.21875 -11.640625 C 2.851562 -12.816406 3.757812 -13.71875 4.9375 -14.34375 C 6.125 -14.96875 7.507812 -15.28125 9.09375 -15.28125 C 10.695312 -15.28125 12.191406 -14.984375 13.578125 -14.390625 L 12.90625 -12.84375 C 11.539062 -13.414062 10.234375 -13.703125 8.984375 -13.703125 C 7.148438 -13.703125 5.71875 -13.15625 4.6875 -12.0625 C 3.65625 -10.976562 3.140625 -9.46875 3.140625 -7.53125 C 3.140625 -5.5 3.632812 -3.957031 4.625 -2.90625 C 5.625 -1.851562 7.082031 -1.328125 9 -1.328125 C 10.039062 -1.328125 11.0625 -1.445312 12.0625 -1.6875 L 12.0625 -6.328125 L 8.6875 -6.328125 Z M 8.6875 -7.890625 "/></g></g></g><g fill="#fcffff" fill-opacity="1"><g transform="translate(204.55808, 388.834123)"><g><path d="M 2.0625 0 L 2.0625 -15.0625 L 3.828125 -15.0625 L 3.828125 0 Z M 2.0625 0 "/></g></g></g><g fill="#fcffff" fill-opacity="1"><g transform="translate(210.438089, 388.834123)"><g><path d="M 11.53125 0 L 9.65625 -4.796875 L 3.625 -4.796875 L 1.765625 0 L 0 0 L 5.953125 -15.125 L 7.421875 -15.125 L 13.34375 0 Z M 9.109375 -6.359375 L 7.359375 -11.03125 C 7.140625 -11.625 6.90625 -12.347656 6.65625 -13.203125 C 6.507812 -12.546875 6.296875 -11.820312 6.015625 -11.03125 L 4.25 -6.359375 Z M 9.109375 -6.359375 "/></g></g></g><g fill="#fcffff" fill-opacity="1"><g transform="translate(223.783961, 388.834123)"><g><path d="M 10.5625 -4 C 10.5625 -2.675781 10.082031 -1.644531 9.125 -0.90625 C 8.164062 -0.164062 6.863281 0.203125 5.21875 0.203125 C 3.425781 0.203125 2.050781 -0.0234375 1.09375 -0.484375 L 1.09375 -2.171875 C 1.707031 -1.910156 2.378906 -1.703125 3.109375 -1.546875 C 3.835938 -1.398438 4.5625 -1.328125 5.28125 -1.328125 C 6.445312 -1.328125 7.320312 -1.546875 7.90625 -1.984375 C 8.5 -2.429688 8.796875 -3.050781 8.796875 -3.84375 C 8.796875 -4.363281 8.691406 -4.789062 8.484375 -5.125 C 8.273438 -5.457031 7.921875 -5.765625 7.421875 -6.046875 C 6.929688 -6.328125 6.1875 -6.644531 5.1875 -7 C 3.789062 -7.5 2.789062 -8.09375 2.1875 -8.78125 C 1.582031 -9.46875 1.28125 -10.363281 1.28125 -11.46875 C 1.28125 -12.632812 1.71875 -13.5625 2.59375 -14.25 C 3.46875 -14.9375 4.625 -15.28125 6.0625 -15.28125 C 7.550781 -15.28125 8.925781 -15.003906 10.1875 -14.453125 L 9.640625 -12.921875 C 8.398438 -13.441406 7.191406 -13.703125 6.015625 -13.703125 C 5.085938 -13.703125 4.363281 -13.503906 3.84375 -13.109375 C 3.320312 -12.710938 3.0625 -12.160156 3.0625 -11.453125 C 3.0625 -10.929688 3.15625 -10.503906 3.34375 -10.171875 C 3.539062 -9.835938 3.863281 -9.53125 4.3125 -9.25 C 4.769531 -8.976562 5.472656 -8.671875 6.421875 -8.328125 C 7.992188 -7.765625 9.078125 -7.160156 9.671875 -6.515625 C 10.265625 -5.867188 10.5625 -5.03125 10.5625 -4 Z M 10.5625 -4 "/></g></g></g><g fill="#fcffff" fill-opacity="1"><g transform="translate(235.358621, 388.834123)"><g/></g></g><g fill="#fcffff" fill-opacity="1"><g transform="translate(240.837019, 388.834123)"><g><path d="M 10.46875 0 L 2.0625 0 L 2.0625 -15.0625 L 10.46875 -15.0625 L 10.46875 -13.5 L 3.828125 -13.5 L 3.828125 -8.65625 L 10.0625 -8.65625 L 10.0625 -7.109375 L 3.828125 -7.109375 L 3.828125 -1.5625 L 10.46875 -1.5625 Z M 10.46875 0 "/></g></g></g><g fill="#fcffff" fill-opacity="1"><g transform="translate(252.566145, 388.834123)"><g><path d="M 8.734375 0 L 3.625 -13.34375 L 3.546875 -13.34375 C 3.640625 -12.289062 3.6875 -11.035156 3.6875 -9.578125 L 3.6875 0 L 2.0625 0 L 2.0625 -15.0625 L 4.703125 -15.0625 L 9.46875 -2.640625 L 9.5625 -2.640625 L 14.375 -15.0625 L 16.984375 -15.0625 L 16.984375 0 L 15.234375 0 L 15.234375 -9.703125 C 15.234375 -10.816406 15.28125 -12.023438 15.375 -13.328125 L 15.296875 -13.328125 L 10.140625 0 Z M 8.734375 0 "/></g></g></g><g fill="#fcffff" fill-opacity="1"><g transform="translate(271.606677, 388.834123)"><g/></g></g><g fill="#fcffff" fill-opacity="1"><g transform="translate(277.085074, 388.834123)"><g><path d="M 8.6875 -7.890625 L 13.8125 -7.890625 L 13.8125 -0.5625 C 13.007812 -0.3125 12.195312 -0.125 11.375 0 C 10.550781 0.132812 9.597656 0.203125 8.515625 0.203125 C 6.234375 0.203125 4.457031 -0.472656 3.1875 -1.828125 C 1.914062 -3.179688 1.28125 -5.082031 1.28125 -7.53125 C 1.28125 -9.09375 1.59375 -10.460938 2.21875 -11.640625 C 2.851562 -12.816406 3.757812 -13.71875 4.9375 -14.34375 C 6.125 -14.96875 7.507812 -15.28125 9.09375 -15.28125 C 10.695312 -15.28125 12.191406 -14.984375 13.578125 -14.390625 L 12.90625 -12.84375 C 11.539062 -13.414062 10.234375 -13.703125 8.984375 -13.703125 C 7.148438 -13.703125 5.71875 -13.15625 4.6875 -12.0625 C 3.65625 -10.976562 3.140625 -9.46875 3.140625 -7.53125 C 3.140625 -5.5 3.632812 -3.957031 4.625 -2.90625 C 5.625 -1.851562 7.082031 -1.328125 9 -1.328125 C 10.039062 -1.328125 11.0625 -1.445312 12.0625 -1.6875 L 12.0625 -6.328125 L 8.6875 -6.328125 Z M 8.6875 -7.890625 "/></g></g></g><g fill="#fcffff" fill-opacity="1"><g transform="translate(292.439015, 388.834123)"><g><path d="M 10.46875 0 L 2.0625 0 L 2.0625 -15.0625 L 10.46875 -15.0625 L 10.46875 -13.5 L 3.828125 -13.5 L 3.828125 -8.65625 L 10.0625 -8.65625 L 10.0625 -7.109375 L 3.828125 -7.109375 L 3.828125 -1.5625 L 10.46875 -1.5625 Z M 10.46875 0 "/></g></g></g><g fill="#fcffff" fill-opacity="1"><g transform="translate(304.16815, 388.834123)"><g><path d="M 10.5625 -4 C 10.5625 -2.675781 10.082031 -1.644531 9.125 -0.90625 C 8.164062 -0.164062 6.863281 0.203125 5.21875 0.203125 C 3.425781 0.203125 2.050781 -0.0234375 1.09375 -0.484375 L 1.09375 -2.171875 C 1.707031 -1.910156 2.378906 -1.703125 3.109375 -1.546875 C 3.835938 -1.398438 4.5625 -1.328125 5.28125 -1.328125 C 6.445312 -1.328125 7.320312 -1.546875 7.90625 -1.984375 C 8.5 -2.429688 8.796875 -3.050781 8.796875 -3.84375 C 8.796875 -4.363281 8.691406 -4.789062 8.484375 -5.125 C 8.273438 -5.457031 7.921875 -5.765625 7.421875 -6.046875 C 6.929688 -6.328125 6.1875 -6.644531 5.1875 -7 C 3.789062 -7.5 2.789062 -8.09375 2.1875 -8.78125 C 1.582031 -9.46875 1.28125 -10.363281 1.28125 -11.46875 C 1.28125 -12.632812 1.71875 -13.5625 2.59375 -14.25 C 3.46875 -14.9375 4.625 -15.28125 6.0625 -15.28125 C 7.550781 -15.28125 8.925781 -15.003906 10.1875 -14.453125 L 9.640625 -12.921875 C 8.398438 -13.441406 7.191406 -13.703125 6.015625 -13.703125 C 5.085938 -13.703125 4.363281 -13.503906 3.84375 -13.109375 C 3.320312 -12.710938 3.0625 -12.160156 3.0625 -11.453125 C 3.0625 -10.929688 3.15625 -10.503906 3.34375 -10.171875 C 3.539062 -9.835938 3.863281 -9.53125 4.3125 -9.25 C 4.769531 -8.976562 5.472656 -8.671875 6.421875 -8.328125 C 7.992188 -7.765625 9.078125 -7.160156 9.671875 -6.515625 C 10.265625 -5.867188 10.5625 -5.03125 10.5625 -4 Z M 10.5625 -4 "/></g></g></g><g fill="#fcffff" fill-opacity="1"><g transform="translate(315.742811, 388.834123)"><g><path d="M 6.703125 0 L 4.953125 0 L 4.953125 -13.5 L 0.1875 -13.5 L 0.1875 -15.0625 L 11.46875 -15.0625 L 11.46875 -13.5 L 6.703125 -13.5 Z M 6.703125 0 "/></g></g></g><g fill="#fcffff" fill-opacity="1"><g transform="translate(327.410141, 388.834123)"><g><path d="M 11.53125 0 L 9.65625 -4.796875 L 3.625 -4.796875 L 1.765625 0 L 0 0 L 5.953125 -15.125 L 7.421875 -15.125 L 13.34375 0 Z M 9.109375 -6.359375 L 7.359375 -11.03125 C 7.140625 -11.625 6.90625 -12.347656 6.65625 -13.203125 C 6.507812 -12.546875 6.296875 -11.820312 6.015625 -11.03125 L 4.25 -6.359375 Z M 8.109375 -15.796875 C 7.816406 -15.796875 7.53125 -15.859375 7.25 -15.984375 C 6.96875 -16.117188 6.691406 -16.257812 6.421875 -16.40625 C 6.148438 -16.5625 5.890625 -16.703125 5.640625 -16.828125 C 5.390625 -16.960938 5.144531 -17.03125 4.90625 -17.03125 C 4.5625 -17.03125 4.300781 -16.925781 4.125 -16.71875 C 3.957031 -16.507812 3.828125 -16.195312 3.734375 -15.78125 L 2.71875 -15.78125 C 2.8125 -16.613281 3.050781 -17.265625 3.4375 -17.734375 C 3.832031 -18.203125 4.34375 -18.4375 4.96875 -18.4375 C 5.289062 -18.4375 5.597656 -18.375 5.890625 -18.25 C 6.179688 -18.125 6.460938 -17.984375 6.734375 -17.828125 C 7.003906 -17.671875 7.257812 -17.53125 7.5 -17.40625 C 7.75 -17.28125 7.984375 -17.21875 8.203125 -17.21875 C 8.546875 -17.21875 8.796875 -17.316406 8.953125 -17.515625 C 9.117188 -17.722656 9.253906 -18.035156 9.359375 -18.453125 L 10.375 -18.453125 C 10.289062 -17.628906 10.050781 -16.976562 9.65625 -16.5 C 9.269531 -16.03125 8.753906 -15.796875 8.109375 -15.796875 Z M 8.109375 -15.796875 "/></g></g></g><g fill="#fcffff" fill-opacity="1"><g transform="translate(340.756012, 388.834123)"><g><path d="M 15.140625 -7.546875 C 15.140625 -5.140625 14.53125 -3.242188 13.3125 -1.859375 C 12.09375 -0.484375 10.398438 0.203125 8.234375 0.203125 C 6.015625 0.203125 4.300781 -0.472656 3.09375 -1.828125 C 1.882812 -3.179688 1.28125 -5.09375 1.28125 -7.5625 C 1.28125 -10.019531 1.882812 -11.921875 3.09375 -13.265625 C 4.300781 -14.617188 6.019531 -15.296875 8.25 -15.296875 C 10.414062 -15.296875 12.101562 -14.609375 13.3125 -13.234375 C 14.53125 -11.859375 15.140625 -9.960938 15.140625 -7.546875 Z M 3.140625 -7.546875 C 3.140625 -5.503906 3.570312 -3.957031 4.4375 -2.90625 C 5.3125 -1.851562 6.578125 -1.328125 8.234375 -1.328125 C 9.898438 -1.328125 11.15625 -1.851562 12 -2.90625 C 12.851562 -3.957031 13.28125 -5.503906 13.28125 -7.546875 C 13.28125 -9.578125 12.859375 -11.113281 12.015625 -12.15625 C 11.171875 -13.207031 9.914062 -13.734375 8.25 -13.734375 C 6.582031 -13.734375 5.3125 -13.203125 4.4375 -12.140625 C 3.570312 -11.085938 3.140625 -9.554688 3.140625 -7.546875 Z M 3.140625 -7.546875 "/></g></g></g></svg>