<svg xmlns="http://www.w3.org/2000/svg" xmlns:xlink="http://www.w3.org/1999/xlink" width="800" zoomAndPan="magnify" viewBox="0 0 600 599.999999" height="800" preserveAspectRatio="xMidYMid meet" version="1.0"><defs><g/><clipPath id="id1"><path d="M 238 119.28125 L 397 119.28125 L 397 155 L 238 155 Z M 238 119.28125 " clip-rule="nonzero"/></clipPath><clipPath id="id2"><path d="M 209 349 L 425.539062 349 L 425.539062 359.28125 L 209 359.28125 Z M 209 349 " clip-rule="nonzero"/></clipPath></defs><rect x="-60" width="720" fill="#ffffff" y="-60" height="719.999999" fill-opacity="1"/><rect x="-60" width="720" fill="#36d6e7" y="-60" height="719.999999" fill-opacity="1"/><rect x="-60" width="720" fill="#ffffff" y="-60" height="719.999999" fill-opacity="1"/><rect x="-60" width="720" fill="#36d6e7" y="-60" height="719.999999" fill-opacity="1"/><path fill="#000000" d="M 354.761719 301.691406 C 353.511719 285.671875 337.105469 272.953125 317.117188 272.953125 C 297.128906 272.953125 280.71875 285.671875 279.472656 301.691406 Z M 354.761719 301.691406 " fill-opacity="1" fill-rule="nonzero"/><g clip-path="url(#id1)"><path fill="#000000" d="M 396.101562 119.28125 L 238.132812 119.28125 L 238.132812 154.847656 L 396.101562 154.847656 Z M 276.359375 149.792969 L 265.820312 144.140625 L 255.269531 149.792969 L 259.445312 138.714844 L 253.605469 132.308594 L 262.28125 132.308594 L 265.820312 124.339844 L 269.359375 132.308594 L 278.054688 132.308594 L 272.199219 138.714844 Z M 327.675781 149.792969 L 317.125 144.140625 L 306.585938 149.792969 L 310.746094 138.714844 L 304.890625 132.308594 L 313.585938 132.308594 L 317.125 124.339844 L 320.664062 132.308594 L 329.339844 132.308594 L 323.5 138.714844 Z M 378.984375 149.792969 L 368.433594 144.140625 L 357.894531 149.792969 L 362.054688 138.714844 L 356.199219 132.308594 L 364.894531 132.308594 L 368.433594 124.339844 L 371.972656 132.308594 L 380.648438 132.308594 L 374.808594 138.714844 Z M 378.984375 149.792969 " fill-opacity="1" fill-rule="nonzero"/></g><path fill="#000000" d="M 278.507812 305.625 L 277.421875 305.625 C 276.332031 305.625 275.453125 304.746094 275.453125 303.660156 C 275.453125 284.558594 294.144531 269.019531 317.117188 269.019531 C 340.089844 269.019531 358.777344 284.558594 358.777344 303.660156 C 358.777344 304.746094 357.898438 305.625 356.808594 305.625 L 355.742188 305.625 L 355.742188 345.289062 L 413.21875 345.289062 L 413.21875 158.78125 L 221.011719 158.78125 L 221.011719 345.289062 L 278.511719 345.289062 L 278.511719 305.625 Z M 377.15625 176.945312 L 398.957031 176.945312 L 398.957031 198.710938 L 377.15625 198.710938 Z M 377.15625 207.792969 L 398.957031 207.792969 L 398.957031 229.558594 L 377.15625 229.558594 Z M 377.15625 238.636719 L 398.957031 238.636719 L 398.957031 260.40625 L 377.15625 260.40625 Z M 366.140625 278.386719 L 398.957031 278.386719 L 398.957031 328.925781 L 366.140625 328.925781 Z M 341.6875 176.945312 L 363.484375 176.945312 L 363.484375 198.710938 L 341.6875 198.710938 Z M 341.6875 207.792969 L 363.484375 207.792969 L 363.484375 229.558594 L 341.6875 229.558594 Z M 341.6875 238.636719 L 363.484375 238.636719 L 363.484375 260.40625 L 341.6875 260.40625 Z M 306.21875 176.945312 L 328.015625 176.945312 L 328.015625 198.710938 L 306.21875 198.710938 Z M 306.21875 207.792969 L 328.015625 207.792969 L 328.015625 229.558594 L 306.21875 229.558594 Z M 306.21875 238.636719 L 328.015625 238.636719 L 328.015625 260.40625 L 306.21875 260.40625 Z M 270.746094 176.945312 L 292.546875 176.945312 L 292.546875 198.710938 L 270.746094 198.710938 Z M 270.746094 207.792969 L 292.546875 207.792969 L 292.546875 229.558594 L 270.746094 229.558594 Z M 235.28125 176.945312 L 257.078125 176.945312 L 257.078125 198.710938 L 235.28125 198.710938 Z M 235.28125 207.792969 L 257.078125 207.792969 L 257.078125 229.558594 L 235.28125 229.558594 Z M 235.28125 238.636719 L 257.078125 238.636719 L 257.078125 260.40625 L 235.28125 260.40625 Z M 268.09375 328.929688 L 235.28125 328.929688 L 235.28125 278.390625 L 268.097656 278.390625 L 268.097656 328.929688 Z M 270.746094 238.636719 L 292.546875 238.636719 L 292.546875 260.40625 L 270.746094 260.40625 Z M 270.746094 238.636719 " fill-opacity="1" fill-rule="nonzero"/><path fill="#000000" d="M 345.804688 305.625 L 351.804688 305.625 L 351.804688 345.289062 L 345.804688 345.289062 Z M 345.804688 305.625 " fill-opacity="1" fill-rule="nonzero"/><g clip-path="url(#id2)"><path fill="#000000" d="M 415.191406 349.222656 L 209.003906 349.222656 L 209.003906 359.28125 L 425.25 359.28125 L 425.25 349.222656 Z M 415.191406 349.222656 " fill-opacity="1" fill-rule="nonzero"/></g><path fill="#000000" d="M 282.449219 305.625 L 288.449219 305.625 L 288.449219 345.289062 L 282.449219 345.289062 Z M 282.449219 305.625 " fill-opacity="1" fill-rule="nonzero"/><path fill="#000000" d="M 303.554688 316.28125 L 330.679688 316.28125 L 330.679688 345.289062 L 303.554688 345.289062 Z M 303.554688 316.28125 " fill-opacity="1" fill-rule="nonzero"/><path fill="#000000" d="M 341.863281 345.289062 L 341.863281 305.625 L 292.390625 305.625 L 292.390625 345.289062 L 299.613281 345.289062 L 299.613281 314.3125 C 299.613281 313.226562 300.496094 312.347656 301.582031 312.347656 L 332.648438 312.347656 C 333.738281 312.347656 334.621094 313.226562 334.621094 314.3125 L 334.621094 345.289062 Z M 341.863281 345.289062 " fill-opacity="1" fill-rule="nonzero"/><g fill="#ffffff" fill-opacity="1"><g transform="translate(178.068092, 416.796125)"><g><path d="M 8.203125 -36.609375 C 10.003906 -38.578125 12.1875 -40.125 14.75 -41.25 C 17.3125 -42.382812 19.957031 -42.953125 22.6875 -42.953125 C 25.425781 -42.953125 27.800781 -42.648438 29.8125 -42.046875 C 31.820312 -41.453125 33.640625 -40.644531 35.265625 -39.625 C 38.640625 -37.4375 41.117188 -34.53125 42.703125 -30.90625 L 37.4375 -30.90625 C 36.15625 -33.207031 34.367188 -35.007812 32.078125 -36.3125 C 29.796875 -37.613281 27.203125 -38.265625 24.296875 -38.265625 C 21.390625 -38.265625 18.910156 -37.828125 16.859375 -36.953125 C 14.804688 -36.078125 13.078125 -34.875 11.671875 -33.34375 C 8.765625 -30.175781 7.3125 -26.132812 7.3125 -21.21875 C 7.3125 -16.257812 8.742188 -12.222656 11.609375 -9.109375 C 14.640625 -5.816406 18.65625 -4.171875 23.65625 -4.171875 C 27.675781 -4.171875 31.140625 -5.410156 34.046875 -7.890625 C 37.117188 -10.492188 38.65625 -13.929688 38.65625 -18.203125 L 23.140625 -18.203125 L 23.140625 -22.5625 L 43.078125 -22.5625 L 43.078125 0 L 38.65625 0 L 38.65625 -7.5 C 36.21875 -3.820312 32.84375 -1.363281 28.53125 -0.125 C 26.945312 0.300781 24.863281 0.515625 22.28125 0.515625 C 19.695312 0.515625 17.117188 -0.0507812 14.546875 -1.1875 C 11.984375 -2.320312 9.804688 -3.867188 8.015625 -5.828125 C 4.335938 -9.847656 2.5 -14.976562 2.5 -21.21875 C 2.5 -27.375 4.398438 -32.503906 8.203125 -36.609375 Z M 8.203125 -36.609375 "/></g></g></g><g fill="#ffffff" fill-opacity="1"><g transform="translate(225.695725, 416.796125)"><g><path d="M 10 -37.828125 L 10 -23.59375 L 33.59375 -23.59375 L 33.59375 -18.90625 L 10 -18.90625 L 10 -4.609375 L 36.421875 -4.609375 L 36.421875 0 L 5.1875 0 L 5.1875 -42.4375 L 36.421875 -42.4375 L 36.421875 -37.828125 Z M 10 -37.828125 "/></g></g></g><g fill="#ffffff" fill-opacity="1"><g transform="translate(265.951681, 416.796125)"><g><path d="M 10.0625 -35.921875 C 9.25 -35.222656 8.703125 -34.445312 8.421875 -33.59375 C 8.148438 -32.738281 8.015625 -31.828125 8.015625 -30.859375 C 8.015625 -29.898438 8.429688 -29.015625 9.265625 -28.203125 C 10.097656 -27.390625 11.195312 -26.707031 12.5625 -26.15625 C 13.925781 -25.601562 15.484375 -25.113281 17.234375 -24.6875 C 18.992188 -24.257812 20.78125 -23.816406 22.59375 -23.359375 C 24.414062 -22.910156 26.203125 -22.398438 27.953125 -21.828125 C 29.703125 -21.253906 31.257812 -20.519531 32.625 -19.625 C 35.664062 -17.695312 37.1875 -15.066406 37.1875 -11.734375 C 37.1875 -7.753906 35.695312 -4.71875 32.71875 -2.625 C 29.75 -0.53125 25.640625 0.515625 20.390625 0.515625 C 14.441406 0.515625 9.910156 -0.722656 6.796875 -3.203125 C 4.015625 -5.429688 2.429688 -8.59375 2.046875 -12.6875 L 7.046875 -12.6875 C 7.222656 -9.78125 8.632812 -7.5625 11.28125 -6.03125 C 13.59375 -4.695312 16.648438 -4.03125 20.453125 -4.03125 C 28.398438 -4.03125 32.375 -6.535156 32.375 -11.546875 C 32.375 -13.253906 31.65625 -14.597656 30.21875 -15.578125 C 28.789062 -16.554688 27 -17.363281 24.84375 -18 C 22.6875 -18.644531 20.359375 -19.242188 17.859375 -19.796875 C 15.359375 -20.359375 13.023438 -21.078125 10.859375 -21.953125 C 8.703125 -22.828125 6.90625 -23.976562 5.46875 -25.40625 C 4.039062 -26.84375 3.328125 -28.78125 3.328125 -31.21875 C 3.328125 -34.6875 4.648438 -37.507812 7.296875 -39.6875 C 9.953125 -41.863281 13.953125 -42.953125 19.296875 -42.953125 C 24.679688 -42.953125 28.847656 -41.710938 31.796875 -39.234375 C 34.492188 -37.054688 35.925781 -34.257812 36.09375 -30.84375 L 31.15625 -30.84375 C 30.726562 -34.34375 28.460938 -36.671875 24.359375 -37.828125 C 22.910156 -38.253906 21.101562 -38.46875 18.9375 -38.46875 C 16.78125 -38.46875 14.960938 -38.21875 13.484375 -37.71875 C 12.015625 -37.226562 10.875 -36.628906 10.0625 -35.921875 Z M 10.0625 -35.921875 "/></g></g></g><g fill="#ffffff" fill-opacity="1"><g transform="translate(306.656351, 416.796125)"><g><path d="M 46.484375 -42.4375 L 46.484375 0 L 41.671875 0 L 41.671875 -35.125 L 25.96875 -14.9375 L 10 -35.125 L 10 0 L 5.1875 0 L 5.1875 -42.4375 L 10.765625 -42.4375 L 25.96875 -22.3125 L 40.90625 -42.4375 Z M 46.484375 -42.4375 "/></g></g></g><g fill="#ffffff" fill-opacity="1"><g transform="translate(359.604431, 416.796125)"><g><path d="M 24.046875 -42.953125 C 30.367188 -42.953125 35.5625 -40.835938 39.625 -36.609375 C 43.59375 -32.503906 45.578125 -27.375 45.578125 -21.21875 C 45.578125 -15.0625 43.59375 -9.929688 39.625 -5.828125 C 35.5625 -1.597656 30.367188 0.515625 24.046875 0.515625 C 17.710938 0.515625 12.519531 -1.597656 8.46875 -5.828125 C 4.488281 -9.929688 2.5 -15.0625 2.5 -21.21875 C 2.5 -27.375 4.488281 -32.503906 8.46875 -36.609375 C 12.519531 -40.835938 17.710938 -42.953125 24.046875 -42.953125 Z M 24.046875 -4.171875 C 29.085938 -4.171875 33.164062 -5.816406 36.28125 -9.109375 C 39.28125 -12.265625 40.78125 -16.300781 40.78125 -21.21875 C 40.78125 -26.132812 39.28125 -30.175781 36.28125 -33.34375 C 33.164062 -36.625 29.085938 -38.265625 24.046875 -38.265625 C 18.992188 -38.265625 14.910156 -36.625 11.796875 -33.34375 C 8.804688 -30.175781 7.3125 -26.132812 7.3125 -21.21875 C 7.3125 -16.300781 8.804688 -12.265625 11.796875 -9.109375 C 14.910156 -5.816406 18.992188 -4.171875 24.046875 -4.171875 Z M 24.046875 -4.171875 "/></g></g></g><g fill="#ffffff" fill-opacity="1"><g transform="translate(408.96282, 416.796125)"><g><path d="M 41.796875 -42.4375 L 41.796875 0 L 36.21875 0 L 10 -35.84375 L 10 0 L 5.1875 0 L 5.1875 -42.4375 L 10.765625 -42.4375 L 36.984375 -6.734375 L 36.984375 -42.4375 Z M 41.796875 -42.4375 "/></g></g></g><g fill="#ffffff" fill-opacity="1"><g transform="translate(155.659447, 442.947193)"><g><path d="M 2.5625 -11.4375 C 3.125 -12.050781 3.804688 -12.535156 4.609375 -12.890625 C 5.410156 -13.242188 6.238281 -13.421875 7.09375 -13.421875 C 7.945312 -13.421875 8.6875 -13.328125 9.3125 -13.140625 C 9.9375 -12.953125 10.503906 -12.695312 11.015625 -12.375 C 12.066406 -11.695312 12.84375 -10.789062 13.34375 -9.65625 L 11.703125 -9.65625 C 11.296875 -10.375 10.734375 -10.9375 10.015625 -11.34375 C 9.304688 -11.75 8.5 -11.953125 7.59375 -11.953125 C 6.6875 -11.953125 5.910156 -11.816406 5.265625 -11.546875 C 4.628906 -11.273438 4.085938 -10.898438 3.640625 -10.421875 C 2.734375 -9.429688 2.28125 -8.164062 2.28125 -6.625 C 2.28125 -5.082031 2.726562 -3.820312 3.625 -2.84375 C 4.570312 -1.8125 5.828125 -1.296875 7.390625 -1.296875 C 8.648438 -1.296875 9.734375 -1.6875 10.640625 -2.46875 C 11.597656 -3.28125 12.078125 -4.351562 12.078125 -5.6875 L 7.234375 -5.6875 L 7.234375 -7.046875 L 13.46875 -7.046875 L 13.46875 0 L 12.078125 0 L 12.078125 -2.34375 C 11.316406 -1.195312 10.257812 -0.429688 8.90625 -0.046875 C 8.414062 0.0859375 7.765625 0.15625 6.953125 0.15625 C 6.148438 0.15625 5.347656 -0.0195312 4.546875 -0.375 C 3.742188 -0.726562 3.0625 -1.210938 2.5 -1.828125 C 1.351562 -3.078125 0.78125 -4.675781 0.78125 -6.625 C 0.78125 -8.550781 1.375 -10.15625 2.5625 -11.4375 Z M 2.5625 -11.4375 "/></g></g></g><g fill="#ffffff" fill-opacity="1"><g transform="translate(172.543333, 442.947193)"><g><path d="M 3.125 -11.8125 L 3.125 -7.375 L 10.5 -7.375 L 10.5 -5.90625 L 3.125 -5.90625 L 3.125 -1.4375 L 11.375 -1.4375 L 11.375 0 L 1.625 0 L 1.625 -13.265625 L 11.375 -13.265625 L 11.375 -11.8125 Z M 3.125 -11.8125 "/></g></g></g><g fill="#ffffff" fill-opacity="1"><g transform="translate(187.124086, 442.947193)"><g><path d="M 3.140625 -11.21875 C 2.890625 -11 2.71875 -10.753906 2.625 -10.484375 C 2.539062 -10.222656 2.5 -9.941406 2.5 -9.640625 C 2.5 -9.335938 2.628906 -9.0625 2.890625 -8.8125 C 3.148438 -8.5625 3.492188 -8.347656 3.921875 -8.171875 C 4.347656 -7.992188 4.832031 -7.835938 5.375 -7.703125 C 5.925781 -7.578125 6.484375 -7.441406 7.046875 -7.296875 C 7.617188 -7.160156 8.179688 -7 8.734375 -6.8125 C 9.285156 -6.632812 9.773438 -6.40625 10.203125 -6.125 C 11.148438 -5.53125 11.625 -4.710938 11.625 -3.671875 C 11.625 -2.421875 11.15625 -1.46875 10.21875 -0.8125 C 9.289062 -0.164062 8.007812 0.15625 6.375 0.15625 C 4.507812 0.15625 3.09375 -0.226562 2.125 -1 C 1.257812 -1.695312 0.765625 -2.6875 0.640625 -3.96875 L 2.203125 -3.96875 C 2.253906 -3.0625 2.695312 -2.367188 3.53125 -1.890625 C 4.25 -1.472656 5.203125 -1.265625 6.390625 -1.265625 C 8.867188 -1.265625 10.109375 -2.046875 10.109375 -3.609375 C 10.109375 -4.140625 9.882812 -4.554688 9.4375 -4.859375 C 9 -5.171875 8.441406 -5.425781 7.765625 -5.625 C 7.085938 -5.820312 6.359375 -6.007812 5.578125 -6.1875 C 4.796875 -6.363281 4.066406 -6.585938 3.390625 -6.859375 C 2.722656 -7.128906 2.164062 -7.488281 1.71875 -7.9375 C 1.269531 -8.382812 1.046875 -8.988281 1.046875 -9.75 C 1.046875 -10.832031 1.457031 -11.710938 2.28125 -12.390625 C 3.113281 -13.078125 4.363281 -13.421875 6.03125 -13.421875 C 7.707031 -13.421875 9.007812 -13.035156 9.9375 -12.265625 C 10.78125 -11.578125 11.226562 -10.703125 11.28125 -9.640625 L 9.734375 -9.640625 C 9.597656 -10.734375 8.890625 -11.457031 7.609375 -11.8125 C 7.160156 -11.945312 6.597656 -12.015625 5.921875 -12.015625 C 5.242188 -12.015625 4.675781 -11.9375 4.21875 -11.78125 C 3.757812 -11.632812 3.398438 -11.445312 3.140625 -11.21875 Z M 3.140625 -11.21875 "/></g></g></g><g fill="#ffffff" fill-opacity="1"><g transform="translate(201.84503, 442.947193)"><g><path d="M 11.03125 -11.8125 L 6.40625 -11.8125 L 6.40625 0 L 4.90625 0 L 4.90625 -11.8125 L 0.28125 -11.8125 L 0.28125 -13.265625 L 11.03125 -13.265625 Z M 11.03125 -11.8125 "/></g></g></g><g fill="#ffffff" fill-opacity="1"><g transform="translate(215.564601, 442.947193)"><g><path d="M 13.203125 0 L 11.53125 0 L 9.921875 -3.84375 L 3.34375 -3.84375 L 1.71875 0 L 0.0625 0 L 5.6875 -13.265625 L 7.578125 -13.265625 Z M 9.328125 -5.234375 L 6.625 -11.703125 L 3.921875 -5.234375 Z M 5.046875 -15.203125 C 4.578125 -15.203125 4.242188 -14.941406 4.046875 -14.421875 L 3.421875 -14.421875 C 3.515625 -15.296875 3.882812 -15.894531 4.53125 -16.21875 C 4.769531 -16.320312 5.046875 -16.375 5.359375 -16.375 C 5.804688 -16.375 6.210938 -16.28125 6.578125 -16.09375 C 6.953125 -15.90625 7.238281 -15.769531 7.4375 -15.6875 C 7.632812 -15.601562 7.863281 -15.5625 8.125 -15.5625 C 8.382812 -15.5625 8.585938 -15.648438 8.734375 -15.828125 C 8.890625 -16.003906 8.992188 -16.179688 9.046875 -16.359375 L 9.6875 -16.359375 C 9.476562 -15.046875 8.835938 -14.390625 7.765625 -14.390625 C 7.285156 -14.390625 6.863281 -14.476562 6.5 -14.65625 C 6.144531 -14.84375 5.867188 -14.976562 5.671875 -15.0625 C 5.484375 -15.15625 5.273438 -15.203125 5.046875 -15.203125 Z M 5.046875 -15.203125 "/></g></g></g><g fill="#ffffff" fill-opacity="1"><g transform="translate(231.226818, 442.947193)"><g><path d="M 7.515625 -13.421875 C 9.484375 -13.421875 11.101562 -12.757812 12.375 -11.4375 C 13.625 -10.15625 14.25 -8.550781 14.25 -6.625 C 14.25 -4.707031 13.625 -3.109375 12.375 -1.828125 C 11.101562 -0.503906 9.484375 0.15625 7.515625 0.15625 C 5.535156 0.15625 3.910156 -0.503906 2.640625 -1.828125 C 1.398438 -3.109375 0.78125 -4.707031 0.78125 -6.625 C 0.78125 -8.550781 1.398438 -10.15625 2.640625 -11.4375 C 3.910156 -12.757812 5.535156 -13.421875 7.515625 -13.421875 Z M 7.515625 -1.296875 C 9.085938 -1.296875 10.363281 -1.8125 11.34375 -2.84375 C 12.269531 -3.832031 12.734375 -5.09375 12.734375 -6.625 C 12.734375 -8.164062 12.269531 -9.429688 11.34375 -10.421875 C 10.363281 -11.441406 9.085938 -11.953125 7.515625 -11.953125 C 5.929688 -11.953125 4.65625 -11.441406 3.6875 -10.421875 C 2.75 -9.429688 2.28125 -8.164062 2.28125 -6.625 C 2.28125 -5.09375 2.75 -3.832031 3.6875 -2.84375 C 4.65625 -1.8125 5.929688 -1.296875 7.515625 -1.296875 Z M 7.515625 -1.296875 "/></g></g></g><g fill="#ffffff" fill-opacity="1"><g transform="translate(248.651448, 442.947193)"><g/></g></g><g fill="#ffffff" fill-opacity="1"><g transform="translate(255.321391, 442.947193)"><g><path d="M 3.125 -11.8125 L 3.125 -7.375 L 10.5 -7.375 L 10.5 -5.90625 L 3.125 -5.90625 L 3.125 -1.4375 L 11.375 -1.4375 L 11.375 0 L 1.625 0 L 1.625 -13.265625 L 11.375 -13.265625 L 11.375 -11.8125 Z M 3.125 -11.8125 "/></g></g></g><g fill="#ffffff" fill-opacity="1"><g transform="translate(269.902148, 442.947193)"><g/></g></g><g fill="#ffffff" fill-opacity="1"><g transform="translate(276.572096, 442.947193)"><g><path d="M 14.515625 -13.265625 L 14.515625 0 L 13.015625 0 L 13.015625 -10.984375 L 8.109375 -4.671875 L 3.125 -10.984375 L 3.125 0 L 1.625 0 L 1.625 -13.265625 L 3.359375 -13.265625 L 8.109375 -6.96875 L 12.78125 -13.265625 Z M 14.515625 -13.265625 "/></g></g></g><g fill="#ffffff" fill-opacity="1"><g transform="translate(295.118265, 442.947193)"><g><path d="M 7.515625 -13.421875 C 9.484375 -13.421875 11.101562 -12.757812 12.375 -11.4375 C 13.625 -10.15625 14.25 -8.550781 14.25 -6.625 C 14.25 -4.707031 13.625 -3.109375 12.375 -1.828125 C 11.101562 -0.503906 9.484375 0.15625 7.515625 0.15625 C 5.535156 0.15625 3.910156 -0.503906 2.640625 -1.828125 C 1.398438 -3.109375 0.78125 -4.707031 0.78125 -6.625 C 0.78125 -8.550781 1.398438 -10.15625 2.640625 -11.4375 C 3.910156 -12.757812 5.535156 -13.421875 7.515625 -13.421875 Z M 7.515625 -1.296875 C 9.085938 -1.296875 10.363281 -1.8125 11.34375 -2.84375 C 12.269531 -3.832031 12.734375 -5.09375 12.734375 -6.625 C 12.734375 -8.164062 12.269531 -9.429688 11.34375 -10.421875 C 10.363281 -11.441406 9.085938 -11.953125 7.515625 -11.953125 C 5.929688 -11.953125 4.65625 -11.441406 3.6875 -10.421875 C 2.75 -9.429688 2.28125 -8.164062 2.28125 -6.625 C 2.28125 -5.09375 2.75 -3.832031 3.6875 -2.84375 C 4.65625 -1.8125 5.929688 -1.296875 7.515625 -1.296875 Z M 7.515625 -1.296875 "/></g></g></g><g fill="#ffffff" fill-opacity="1"><g transform="translate(312.542901, 442.947193)"><g><path d="M 13.0625 -13.265625 L 13.0625 0 L 11.3125 0 L 3.125 -11.203125 L 3.125 0 L 1.625 0 L 1.625 -13.265625 L 3.359375 -13.265625 L 11.5625 -2.109375 L 11.5625 -13.265625 Z M 13.0625 -13.265625 "/></g></g></g><g fill="#ffffff" fill-opacity="1"><g transform="translate(329.627064, 442.947193)"><g><path d="M 3.125 0 L 1.625 0 L 1.625 -13.265625 L 3.125 -13.265625 Z M 3.125 0 "/></g></g></g><g fill="#ffffff" fill-opacity="1"><g transform="translate(336.777675, 442.947193)"><g><path d="M 11.03125 -11.8125 L 6.40625 -11.8125 L 6.40625 0 L 4.90625 0 L 4.90625 -11.8125 L 0.28125 -11.8125 L 0.28125 -13.265625 L 11.03125 -13.265625 Z M 11.03125 -11.8125 "/></g></g></g><g fill="#ffffff" fill-opacity="1"><g transform="translate(350.497252, 442.947193)"><g><path d="M 7.515625 -13.421875 C 9.484375 -13.421875 11.101562 -12.757812 12.375 -11.4375 C 13.625 -10.15625 14.25 -8.550781 14.25 -6.625 C 14.25 -4.707031 13.625 -3.109375 12.375 -1.828125 C 11.101562 -0.503906 9.484375 0.15625 7.515625 0.15625 C 5.535156 0.15625 3.910156 -0.503906 2.640625 -1.828125 C 1.398438 -3.109375 0.78125 -4.707031 0.78125 -6.625 C 0.78125 -8.550781 1.398438 -10.15625 2.640625 -11.4375 C 3.910156 -12.757812 5.535156 -13.421875 7.515625 -13.421875 Z M 7.515625 -1.296875 C 9.085938 -1.296875 10.363281 -1.8125 11.34375 -2.84375 C 12.269531 -3.832031 12.734375 -5.09375 12.734375 -6.625 C 12.734375 -8.164062 12.269531 -9.429688 11.34375 -10.421875 C 10.363281 -11.441406 9.085938 -11.953125 7.515625 -11.953125 C 5.929688 -11.953125 4.65625 -11.441406 3.6875 -10.421875 C 2.75 -9.429688 2.28125 -8.164062 2.28125 -6.625 C 2.28125 -5.09375 2.75 -3.832031 3.6875 -2.84375 C 4.65625 -1.8125 5.929688 -1.296875 7.515625 -1.296875 Z M 7.515625 -1.296875 "/></g></g></g><g fill="#ffffff" fill-opacity="1"><g transform="translate(367.921888, 442.947193)"><g><path d="M 3.125 0 L 1.625 0 L 1.625 -13.265625 L 7.96875 -13.265625 C 9.320312 -13.265625 10.40625 -12.890625 11.21875 -12.140625 C 12.03125 -11.398438 12.4375 -10.390625 12.4375 -9.109375 C 12.4375 -7.453125 11.75 -6.328125 10.375 -5.734375 C 9.988281 -5.554688 9.609375 -5.425781 9.234375 -5.34375 L 12.71875 0 L 10.9375 0 L 7.734375 -5.09375 L 3.125 -5.09375 Z M 3.125 -6.515625 L 7.71875 -6.515625 C 9.125 -6.515625 10.097656 -6.953125 10.640625 -7.828125 C 10.835938 -8.160156 10.9375 -8.585938 10.9375 -9.109375 C 10.9375 -9.953125 10.648438 -10.617188 10.078125 -11.109375 C 9.503906 -11.597656 8.742188 -11.84375 7.796875 -11.84375 L 3.125 -11.84375 Z M 3.125 -6.515625 "/></g></g></g><g fill="#ffffff" fill-opacity="1"><g transform="translate(383.724301, 442.947193)"><g><path d="M 13.203125 0 L 11.53125 0 L 9.921875 -3.84375 L 3.34375 -3.84375 L 1.71875 0 L 0.0625 0 L 5.6875 -13.265625 L 7.578125 -13.265625 Z M 9.328125 -5.234375 L 6.625 -11.703125 L 3.921875 -5.234375 Z M 9.328125 -5.234375 "/></g></g></g><g fill="#ffffff" fill-opacity="1"><g transform="translate(399.386524, 442.947193)"><g><path d="M 14.515625 -13.265625 L 14.515625 0 L 13.015625 0 L 13.015625 -10.984375 L 8.109375 -4.671875 L 3.125 -10.984375 L 3.125 0 L 1.625 0 L 1.625 -13.265625 L 3.359375 -13.265625 L 8.109375 -6.96875 L 12.78125 -13.265625 Z M 14.515625 -13.265625 "/></g></g></g><g fill="#ffffff" fill-opacity="1"><g transform="translate(417.932681, 442.947193)"><g><path d="M 3.125 -11.8125 L 3.125 -7.375 L 10.5 -7.375 L 10.5 -5.90625 L 3.125 -5.90625 L 3.125 -1.4375 L 11.375 -1.4375 L 11.375 0 L 1.625 0 L 1.625 -13.265625 L 11.375 -13.265625 L 11.375 -11.8125 Z M 3.125 -11.8125 "/></g></g></g><g fill="#ffffff" fill-opacity="1"><g transform="translate(432.513438, 442.947193)"><g><path d="M 13.0625 -13.265625 L 13.0625 0 L 11.3125 0 L 3.125 -11.203125 L 3.125 0 L 1.625 0 L 1.625 -13.265625 L 3.359375 -13.265625 L 11.5625 -2.109375 L 11.5625 -13.265625 Z M 13.0625 -13.265625 "/></g></g></g><g fill="#ffffff" fill-opacity="1"><g transform="translate(449.59759, 442.947193)"><g><path d="M 11.03125 -11.8125 L 6.40625 -11.8125 L 6.40625 0 L 4.90625 0 L 4.90625 -11.8125 L 0.28125 -11.8125 L 0.28125 -13.265625 L 11.03125 -13.265625 Z M 11.03125 -11.8125 "/></g></g></g><g fill="#ffffff" fill-opacity="1"><g transform="translate(463.317156, 442.947193)"><g><path d="M 7.515625 -13.421875 C 9.484375 -13.421875 11.101562 -12.757812 12.375 -11.4375 C 13.625 -10.15625 14.25 -8.550781 14.25 -6.625 C 14.25 -4.707031 13.625 -3.109375 12.375 -1.828125 C 11.101562 -0.503906 9.484375 0.15625 7.515625 0.15625 C 5.535156 0.15625 3.910156 -0.503906 2.640625 -1.828125 C 1.398438 -3.109375 0.78125 -4.707031 0.78125 -6.625 C 0.78125 -8.550781 1.398438 -10.15625 2.640625 -11.4375 C 3.910156 -12.757812 5.535156 -13.421875 7.515625 -13.421875 Z M 7.515625 -1.296875 C 9.085938 -1.296875 10.363281 -1.8125 11.34375 -2.84375 C 12.269531 -3.832031 12.734375 -5.09375 12.734375 -6.625 C 12.734375 -8.164062 12.269531 -9.429688 11.34375 -10.421875 C 10.363281 -11.441406 9.085938 -11.953125 7.515625 -11.953125 C 5.929688 -11.953125 4.65625 -11.441406 3.6875 -10.421875 C 2.75 -9.429688 2.28125 -8.164062 2.28125 -6.625 C 2.28125 -5.09375 2.75 -3.832031 3.6875 -2.84375 C 4.65625 -1.8125 5.929688 -1.296875 7.515625 -1.296875 Z M 7.515625 -1.296875 "/></g></g></g><g fill="#ffffff" fill-opacity="1"><g transform="translate(234.608662, 468.447192)"><g><path d="M 7.21875 -13.265625 C 8 -13.265625 8.753906 -13.113281 9.484375 -12.8125 C 10.222656 -12.507812 10.875 -12.070312 11.4375 -11.5 C 12.675781 -10.226562 13.296875 -8.601562 13.296875 -6.625 C 13.296875 -4.65625 12.675781 -3.035156 11.4375 -1.765625 C 10.875 -1.191406 10.222656 -0.753906 9.484375 -0.453125 C 8.753906 -0.148438 8 0 7.21875 0 L 1.625 0 L 1.625 -13.265625 Z M 7.15625 -1.421875 C 8.539062 -1.421875 9.664062 -1.9375 10.53125 -2.96875 C 11.375 -3.957031 11.796875 -5.175781 11.796875 -6.625 C 11.796875 -8.082031 11.375 -9.304688 10.53125 -10.296875 C 9.664062 -11.328125 8.539062 -11.84375 7.15625 -11.84375 L 3.125 -11.84375 L 3.125 -1.421875 Z M 7.15625 -1.421875 "/></g></g></g><g fill="#ffffff" fill-opacity="1"><g transform="translate(251.112033, 468.447192)"><g><path d="M 3.125 -11.8125 L 3.125 -7.375 L 10.5 -7.375 L 10.5 -5.90625 L 3.125 -5.90625 L 3.125 -1.4375 L 11.375 -1.4375 L 11.375 0 L 1.625 0 L 1.625 -13.265625 L 11.375 -13.265625 L 11.375 -11.8125 Z M 3.125 -11.8125 "/></g></g></g><g fill="#ffffff" fill-opacity="1"><g transform="translate(265.692786, 468.447192)"><g/></g></g><g fill="#ffffff" fill-opacity="1"><g transform="translate(272.362731, 468.447192)"><g><path d="M 12.34375 -13.265625 L 12.34375 0 L 10.84375 0 L 10.84375 -5.90625 L 3.125 -5.90625 L 3.125 0 L 1.625 0 L 1.625 -13.265625 L 3.125 -13.265625 L 3.125 -7.375 L 10.84375 -7.375 L 10.84375 -13.265625 Z M 12.34375 -13.265625 "/></g></g></g><g fill="#ffffff" fill-opacity="1"><g transform="translate(288.725911, 468.447192)"><g><path d="M 7.515625 -13.421875 C 9.484375 -13.421875 11.101562 -12.757812 12.375 -11.4375 C 13.625 -10.15625 14.25 -8.550781 14.25 -6.625 C 14.25 -4.707031 13.625 -3.109375 12.375 -1.828125 C 11.101562 -0.503906 9.484375 0.15625 7.515625 0.15625 C 5.535156 0.15625 3.910156 -0.503906 2.640625 -1.828125 C 1.398438 -3.109375 0.78125 -4.707031 0.78125 -6.625 C 0.78125 -8.550781 1.398438 -10.15625 2.640625 -11.4375 C 3.910156 -12.757812 5.535156 -13.421875 7.515625 -13.421875 Z M 7.515625 -1.296875 C 9.085938 -1.296875 10.363281 -1.8125 11.34375 -2.84375 C 12.269531 -3.832031 12.734375 -5.09375 12.734375 -6.625 C 12.734375 -8.164062 12.269531 -9.429688 11.34375 -10.421875 C 10.363281 -11.441406 9.085938 -11.953125 7.515625 -11.953125 C 5.929688 -11.953125 4.65625 -11.441406 3.6875 -10.421875 C 2.75 -9.429688 2.28125 -8.164062 2.28125 -6.625 C 2.28125 -5.09375 2.75 -3.832031 3.6875 -2.84375 C 4.65625 -1.8125 5.929688 -1.296875 7.515625 -1.296875 Z M 7.515625 -1.296875 "/></g></g></g><g fill="#ffffff" fill-opacity="1"><g transform="translate(306.150541, 468.447192)"><g><path d="M 11.03125 -11.8125 L 6.40625 -11.8125 L 6.40625 0 L 4.90625 0 L 4.90625 -11.8125 L 0.28125 -11.8125 L 0.28125 -13.265625 L 11.03125 -13.265625 Z M 11.03125 -11.8125 "/></g></g></g><g fill="#ffffff" fill-opacity="1"><g transform="translate(319.870113, 468.447192)"><g><path d="M 3.125 -11.8125 L 3.125 -7.375 L 10.5 -7.375 L 10.5 -5.90625 L 3.125 -5.90625 L 3.125 -1.4375 L 11.375 -1.4375 L 11.375 0 L 1.625 0 L 1.625 -13.265625 L 11.375 -13.265625 L 11.375 -11.8125 Z M 3.125 -11.8125 "/></g></g></g><g fill="#ffffff" fill-opacity="1"><g transform="translate(334.450863, 468.447192)"><g><path d="M 3.125 -13.265625 L 3.125 -1.4375 L 10.359375 -1.4375 L 10.359375 0 L 1.625 0 L 1.625 -13.265625 Z M 3.125 -13.265625 "/></g></g></g><g fill="#ffffff" fill-opacity="1"><g transform="translate(347.52956, 468.447192)"><g><path d="M 13.203125 0 L 11.53125 0 L 9.921875 -3.84375 L 3.34375 -3.84375 L 1.71875 0 L 0.0625 0 L 5.6875 -13.265625 L 7.578125 -13.265625 Z M 9.328125 -5.234375 L 6.625 -11.703125 L 3.921875 -5.234375 Z M 9.328125 -5.234375 "/></g></g></g><g fill="#ffffff" fill-opacity="1"><g transform="translate(363.191783, 468.447192)"><g><path d="M 3.125 0 L 1.625 0 L 1.625 -13.265625 L 7.96875 -13.265625 C 9.320312 -13.265625 10.40625 -12.890625 11.21875 -12.140625 C 12.03125 -11.398438 12.4375 -10.390625 12.4375 -9.109375 C 12.4375 -7.453125 11.75 -6.328125 10.375 -5.734375 C 9.988281 -5.554688 9.609375 -5.425781 9.234375 -5.34375 L 12.71875 0 L 10.9375 0 L 7.734375 -5.09375 L 3.125 -5.09375 Z M 3.125 -6.515625 L 7.71875 -6.515625 C 9.125 -6.515625 10.097656 -6.953125 10.640625 -7.828125 C 10.835938 -8.160156 10.9375 -8.585938 10.9375 -9.109375 C 10.9375 -9.953125 10.648438 -10.617188 10.078125 -11.109375 C 9.503906 -11.597656 8.742188 -11.84375 7.796875 -11.84375 L 3.125 -11.84375 Z M 3.125 -6.515625 "/></g></g></g><g fill="#ffffff" fill-opacity="1"><g transform="translate(378.994196, 468.447192)"><g><path d="M 3.125 0 L 1.625 0 L 1.625 -13.265625 L 3.125 -13.265625 Z M 3.125 0 "/></g></g></g><g fill="#ffffff" fill-opacity="1"><g transform="translate(386.144808, 468.447192)"><g><path d="M 13.203125 0 L 11.53125 0 L 9.921875 -3.84375 L 3.34375 -3.84375 L 1.71875 0 L 0.0625 0 L 5.6875 -13.265625 L 7.578125 -13.265625 Z M 9.328125 -5.234375 L 6.625 -11.703125 L 3.921875 -5.234375 Z M 9.328125 -5.234375 "/></g></g></g></svg>