<svg xmlns="http://www.w3.org/2000/svg" xmlns:xlink="http://www.w3.org/1999/xlink" width="50" zoomAndPan="magnify" viewBox="0 0 37.5 37.499999" height="50" preserveAspectRatio="xMidYMid meet" version="1.0"><defs><clipPath id="id1"><path d="M 3.75 3.300781 L 34.5 3.300781 L 34.5 34.050781 L 3.75 34.050781 Z M 3.75 3.300781 " clip-rule="nonzero"/></clipPath></defs><path fill="#ffffff" d="M 25.390625 8.761719 C 25.390625 9.21875 25.765625 9.59375 26.222656 9.59375 C 26.683594 9.59375 27.054688 9.21875 27.054688 8.761719 C 27.054688 8.300781 26.683594 7.929688 26.222656 7.929688 C 25.765625 7.929688 25.390625 8.300781 25.390625 8.761719 " fill-opacity="1" fill-rule="nonzero"/><g clip-path="url(#id1)"><path fill="#ffffff" d="M 3.8125 33.191406 C 3.8125 33.636719 4.1875 34.011719 4.632812 34.011719 C 5.597656 34.011719 6.558594 34.011719 7.523438 34.011719 C 9.835938 34.011719 12.148438 34.011719 14.460938 34.011719 C 17.25 34.011719 20.035156 34.011719 22.820312 34.011719 C 25.242188 34.011719 27.660156 34.011719 30.082031 34.011719 C 31.253906 34.011719 32.4375 34.050781 33.613281 34.011719 C 33.628906 34.011719 33.644531 34.011719 33.660156 34.011719 C 34.105469 34.011719 34.484375 33.636719 34.484375 33.191406 C 34.484375 31.683594 34.484375 30.179688 34.484375 28.671875 C 34.484375 26.277344 34.484375 23.886719 34.484375 21.496094 C 34.484375 20.941406 34.484375 20.386719 34.484375 19.832031 C 34.484375 19.582031 34.390625 19.390625 34.246094 19.257812 C 34.113281 19.109375 33.921875 19.011719 33.660156 19.011719 C 32.382812 19.011719 31.101562 19.011719 29.820312 19.011719 C 27.789062 19.011719 25.757812 19.011719 23.726562 19.011719 C 23.253906 19.011719 22.78125 19.011719 22.308594 19.011719 C 21.25 19.011719 21.25 20.652344 22.308594 20.652344 C 23.378906 20.652344 24.449219 20.652344 25.515625 20.652344 C 25.515625 22.945312 25.515625 25.238281 25.515625 27.53125 C 25.515625 27.613281 25.515625 27.695312 25.515625 27.773438 C 24.324219 27.773438 23.128906 27.777344 21.933594 27.773438 C 20.730469 27.773438 19.675781 27.585938 18.503906 27.128906 C 18.015625 26.9375 17.316406 26.566406 16.78125 26.203125 C 16.234375 25.839844 15.796875 25.464844 15.300781 24.945312 C 13.476562 23.042969 12.570312 20.445312 12.820312 17.761719 C 12.933594 16.539062 13.375 15.203125 14.023438 14.097656 C 14.679688 12.980469 15.613281 11.960938 16.636719 11.25 C 16.945312 11.035156 17.265625 10.835938 17.59375 10.65625 C 17.910156 10.488281 18.265625 10.320312 18.503906 10.226562 C 19.1875 9.960938 20.089844 9.726562 20.6875 9.652344 C 21.65625 9.535156 22.644531 9.582031 23.613281 9.582031 C 24.671875 9.582031 24.671875 7.941406 23.613281 7.941406 C 22.734375 7.941406 21.839844 7.898438 20.957031 7.980469 C 19.402344 8.125 17.894531 8.585938 16.539062 9.367188 C 13.945312 10.859375 12.011719 13.457031 11.382812 16.390625 C 10.746094 19.371094 11.394531 22.578125 13.230469 25.023438 C 15.089844 27.5 17.867188 29.085938 20.957031 29.375 C 21.890625 29.460938 22.84375 29.414062 23.777344 29.414062 C 24.632812 29.414062 25.484375 29.414062 26.339844 29.414062 C 26.78125 29.414062 27.160156 29.039062 27.160156 28.59375 C 27.160156 26.105469 27.160156 23.613281 27.160156 21.125 C 27.160156 20.96875 27.160156 20.808594 27.160156 20.652344 C 28.851562 20.652344 30.546875 20.652344 32.242188 20.652344 C 32.441406 20.652344 32.640625 20.652344 32.839844 20.652344 C 32.839844 21.886719 32.839844 23.121094 32.839844 24.351562 C 32.839844 26.746094 32.839844 29.136719 32.839844 31.527344 C 32.839844 31.808594 32.839844 32.089844 32.839844 32.371094 C 32.152344 32.371094 31.460938 32.371094 30.773438 32.371094 C 28.460938 32.371094 26.144531 32.371094 23.832031 32.371094 C 21.046875 32.371094 18.257812 32.371094 15.472656 32.371094 C 13.054688 32.371094 10.632812 32.371094 8.214844 32.371094 C 7.417969 32.371094 6.621094 32.371094 5.828125 32.371094 C 5.703125 32.371094 5.578125 32.367188 5.453125 32.367188 C 5.453125 31.679688 5.453125 30.988281 5.453125 30.300781 C 5.453125 27.988281 5.453125 25.675781 5.453125 23.363281 C 5.453125 20.578125 5.453125 17.789062 5.453125 15.003906 C 5.453125 12.582031 5.453125 10.164062 5.453125 7.742188 C 5.453125 6.949219 5.453125 6.152344 5.453125 5.355469 C 5.453125 5.234375 5.457031 5.109375 5.460938 4.984375 C 6.148438 4.984375 6.835938 4.984375 7.523438 4.984375 C 9.835938 4.984375 12.148438 4.984375 14.460938 4.984375 C 17.25 4.984375 20.035156 4.984375 22.820312 4.984375 C 25.242188 4.984375 27.660156 4.984375 30.082031 4.984375 C 30.875 4.984375 31.671875 4.984375 32.46875 4.984375 C 32.589844 4.984375 32.714844 4.988281 32.839844 4.988281 C 32.839844 6.246094 32.839844 7.503906 32.839844 8.761719 C 32.839844 9.816406 34.484375 9.820312 34.484375 8.761719 C 34.484375 7.226562 34.484375 5.695312 34.484375 4.164062 C 34.484375 3.71875 34.105469 3.34375 33.660156 3.34375 C 32.699219 3.34375 31.734375 3.34375 30.773438 3.34375 C 28.460938 3.34375 26.144531 3.34375 23.832031 3.34375 C 21.046875 3.34375 18.257812 3.34375 15.472656 3.34375 C 13.054688 3.34375 10.632812 3.34375 8.214844 3.34375 C 7.039062 3.34375 5.855469 3.304688 4.683594 3.34375 C 4.667969 3.34375 4.648438 3.34375 4.632812 3.34375 C 4.1875 3.34375 3.8125 3.71875 3.8125 4.164062 C 3.8125 5.125 3.8125 6.089844 3.8125 7.054688 C 3.8125 9.367188 3.8125 11.679688 3.8125 13.992188 C 3.8125 16.777344 3.8125 19.566406 3.8125 22.351562 C 3.8125 24.773438 3.8125 27.191406 3.8125 29.613281 C 3.8125 30.785156 3.773438 31.96875 3.8125 33.140625 C 3.8125 33.160156 3.8125 33.175781 3.8125 33.191406 " fill-opacity="1" fill-rule="nonzero"/></g></svg>