<svg xmlns="http://www.w3.org/2000/svg" xmlns:xlink="http://www.w3.org/1999/xlink" width="800" zoomAndPan="magnify" viewBox="0 0 600 599.999999" height="800" preserveAspectRatio="xMidYMid meet" version="1.0"><defs><clipPath id="id1"><path d="M 67.027344 67.027344 L 532.777344 67.027344 L 532.777344 532.777344 L 67.027344 532.777344 Z M 67.027344 67.027344 " clip-rule="nonzero"/></clipPath><clipPath id="id2"><path d="M 109 109 L 490.71875 109 L 490.71875 490.71875 L 109 490.71875 Z M 109 109 " clip-rule="nonzero"/></clipPath></defs><rect x="-60" width="720" fill="#ffffff" y="-60" height="719.999999" fill-opacity="1"/><rect x="-60" width="720" fill="#ffffff" y="-60" height="719.999999" fill-opacity="1"/><rect x="-60" width="720" fill="#ffffff" y="-60" height="719.999999" fill-opacity="1"/><g clip-path="url(#id1)"><path fill="#36d6e7" d="M 532.777344 481.027344 C 532.777344 509.605469 509.605469 532.777344 481.027344 532.777344 L 118.777344 532.777344 C 90.199219 532.777344 67.027344 509.605469 67.027344 481.027344 L 67.027344 118.777344 C 67.027344 90.199219 90.199219 67.027344 118.777344 67.027344 L 481.027344 67.027344 C 509.605469 67.027344 532.777344 90.199219 532.777344 118.777344 Z M 532.777344 481.027344 " fill-opacity="1" fill-rule="nonzero"/></g><path fill="#ffffff" d="M 377.644531 176.757812 C 377.644531 182.460938 382.269531 187.085938 387.976562 187.085938 C 393.679688 187.085938 398.304688 182.460938 398.304688 176.757812 C 398.304688 171.050781 393.679688 166.425781 387.976562 166.425781 C 382.269531 166.425781 377.644531 171.050781 377.644531 176.757812 " fill-opacity="1" fill-rule="nonzero"/><g clip-path="url(#id2)"><path fill="#ffffff" d="M 109.734375 480.070312 C 109.734375 485.578125 114.402344 490.261719 119.925781 490.261719 C 131.886719 490.261719 143.84375 490.261719 155.800781 490.261719 C 184.519531 490.261719 213.234375 490.261719 241.949219 490.261719 C 276.542969 490.261719 311.144531 490.261719 345.742188 490.261719 C 375.78125 490.261719 405.820312 490.261719 435.859375 490.261719 C 450.441406 490.261719 465.117188 490.75 479.691406 490.261719 C 479.898438 490.253906 480.105469 490.261719 480.3125 490.261719 C 485.824219 490.261719 490.503906 485.59375 490.503906 480.070312 C 490.503906 461.359375 490.503906 442.648438 490.503906 423.941406 C 490.503906 394.246094 490.503906 364.554688 490.503906 334.863281 C 490.503906 327.976562 490.503906 321.09375 490.503906 314.207031 C 490.503906 311.085938 489.34375 308.714844 487.578125 307.078125 C 485.9375 305.238281 483.519531 304.015625 480.3125 304.015625 C 464.421875 304.015625 448.527344 304.015625 432.632812 304.015625 C 407.417969 304.015625 382.199219 304.015625 356.980469 304.015625 C 351.101562 304.015625 345.226562 304.015625 339.347656 304.015625 C 326.230469 304.015625 326.207031 324.398438 339.347656 324.398438 C 352.632812 324.398438 365.917969 324.398438 379.203125 324.398438 C 379.203125 352.871094 379.203125 381.339844 379.203125 409.8125 C 379.203125 410.808594 379.203125 411.808594 379.203125 412.804688 C 364.375 412.808594 349.542969 412.820312 334.707031 412.800781 C 319.753906 412.78125 306.667969 410.472656 292.132812 404.78125 C 286.050781 402.40625 277.375 397.789062 270.726562 393.316406 C 263.976562 388.777344 258.519531 384.152344 252.34375 377.710938 C 229.710938 354.082031 218.476562 321.835938 221.554688 288.523438 C 222.964844 273.320312 228.441406 256.746094 236.515625 243.003906 C 244.644531 229.167969 256.265625 216.5 268.953125 207.644531 C 272.773438 204.980469 276.746094 202.53125 280.839844 200.3125 C 284.753906 198.195312 289.191406 196.117188 292.132812 194.96875 C 300.625 191.644531 311.824219 188.742188 319.257812 187.828125 C 331.25 186.351562 343.523438 186.949219 355.585938 186.949219 C 368.703125 186.949219 368.722656 166.566406 355.585938 166.566406 C 344.632812 166.566406 333.527344 166.078125 322.609375 167.085938 C 303.292969 168.875 284.570312 174.589844 267.730469 184.285156 C 235.53125 202.828125 211.53125 235.078125 203.726562 271.484375 C 195.800781 308.472656 203.855469 348.273438 226.644531 378.644531 C 249.726562 409.40625 284.238281 429.113281 322.609375 432.664062 C 334.1875 433.734375 346.007812 433.1875 357.617188 433.1875 C 368.207031 433.1875 378.800781 433.1875 389.394531 433.1875 C 394.90625 433.1875 399.585938 428.515625 399.585938 422.996094 C 399.585938 392.078125 399.585938 361.160156 399.585938 330.246094 C 399.585938 328.296875 399.585938 326.347656 399.585938 324.398438 C 420.617188 324.398438 441.648438 324.398438 462.679688 324.398438 C 465.160156 324.398438 467.640625 324.398438 470.121094 324.398438 C 470.121094 339.714844 470.121094 355.027344 470.121094 370.335938 C 470.121094 400.03125 470.121094 429.722656 470.121094 459.417969 C 470.121094 462.902344 470.121094 466.390625 470.121094 469.878906 C 461.5625 469.878906 453 469.878906 444.433594 469.878906 C 415.722656 469.878906 387.007812 469.878906 358.289062 469.878906 C 323.691406 469.878906 289.09375 469.878906 254.5 469.878906 C 224.457031 469.878906 194.417969 469.878906 164.378906 469.878906 C 154.503906 469.878906 144.625 469.878906 134.75 469.878906 C 133.214844 469.878906 131.667969 469.84375 130.117188 469.808594 C 130.117188 461.269531 130.117188 452.730469 130.117188 444.191406 C 130.117188 415.476562 130.117188 386.761719 130.117188 358.046875 C 130.117188 323.449219 130.117188 288.847656 130.117188 254.253906 C 130.117188 224.210938 130.117188 194.175781 130.117188 164.132812 C 130.117188 154.257812 130.117188 144.382812 130.117188 134.503906 C 130.117188 132.96875 130.148438 131.425781 130.183594 129.875 C 138.722656 129.875 147.261719 129.875 155.800781 129.875 C 184.519531 129.875 213.234375 129.875 241.949219 129.875 C 276.542969 129.875 311.144531 129.875 345.742188 129.875 C 375.78125 129.875 405.820312 129.875 435.859375 129.875 C 445.738281 129.875 455.613281 129.875 465.492188 129.875 C 467.023438 129.875 468.570312 129.90625 470.121094 129.941406 C 470.121094 145.546875 470.121094 161.148438 470.121094 176.757812 C 470.121094 189.871094 490.503906 189.894531 490.503906 176.757812 C 490.503906 157.734375 490.503906 138.707031 490.503906 119.679688 C 490.503906 114.171875 485.835938 109.488281 480.3125 109.488281 C 468.355469 109.488281 456.394531 109.488281 444.433594 109.488281 C 415.722656 109.488281 387.007812 109.488281 358.289062 109.488281 C 323.691406 109.488281 289.09375 109.488281 254.5 109.488281 C 224.457031 109.488281 194.417969 109.488281 164.378906 109.488281 C 149.796875 109.488281 135.121094 109.003906 120.542969 109.488281 C 120.339844 109.496094 120.132812 109.488281 119.925781 109.488281 C 114.417969 109.488281 109.734375 114.160156 109.734375 119.679688 C 109.734375 131.640625 109.734375 143.601562 109.734375 155.558594 C 109.734375 184.273438 109.734375 212.988281 109.734375 241.703125 C 109.734375 276.300781 109.734375 310.898438 109.734375 345.496094 C 109.734375 375.539062 109.734375 405.574219 109.734375 435.617188 C 109.734375 450.195312 109.246094 464.875 109.734375 479.449219 C 109.742188 479.65625 109.734375 479.863281 109.734375 480.070312 " fill-opacity="1" fill-rule="nonzero"/></g></svg>